<?xml version="1.0" encoding="iso-8859-1"?>
<!-- Generator: Adobe Illustrator 16.0.0, SVG Export Plug-In . SVG Version: 6.00 Build 0)  -->
<!DOCTYPE svg PUBLIC "-//W3C//DTD SVG 1.1//EN" "http://www.w3.org/Graphics/SVG/1.1/DTD/svg11.dtd">
<svg version="1.1" id="Capa_1" xmlns="http://www.w3.org/2000/svg" xmlns:xlink="http://www.w3.org/1999/xlink" x="0px" y="0px"
	 width="470.056px" height="470.056px" viewBox="0 0 470.056 470.056" style="enable-background:new 0 0 470.056 470.056;"
	 xml:space="preserve">
<g>
	<g>
		<path d="M132.191,439.757c0.793,14.154,12.507,25.238,26.675,25.238c0.495,0,0.996-0.016,1.507-0.032l50.598-2.829
			c-2.531-1.446-4.765-3.31-6.598-5.526c-1.417-1.707-2.517-3.654-3.431-5.702l-41.222,2.3c-0.278,0.017-0.563,0.017-0.846,0.017
			c-7.882,0-14.475-6.159-14.923-14.122l-2.503-44.803c-0.172-3.022,0.587-5.888,2.008-8.336c0.998-1.715,2.324-3.226,3.911-4.42
			c1.731-1.318,3.783-2.208,6.013-2.669c0.713-0.145,1.419-0.293,2.174-0.337l55.252-3.09c1.349-1.358,2.802-2.593,4.442-3.591
			c-0.345-0.833-0.721-1.614-1.028-2.504c-0.629-1.812-1.162-3.755-1.633-5.795l-57.685,3.218c-3.11,0.168-6.069,0.949-8.862,2.132
			c-4.366-9.481-6.248-22.493-6.943-33.795L36.173,262.54c-12.892-7.266-8.275-25.022-0.18-39.393
			c5.714-10.149,15.881-15.998,25.904-15.998c4.172,0,8.307,1.01,12.09,3.138l35.979,20.262c-1.641-2.629-2.763-5.496-3.282-8.604
			c-0.367-2.204-0.493-4.513-0.299-6.931l-26.609-14.988c-5.408-3.043-11.588-4.652-17.871-4.652
			c-14.662,0-28.525,8.427-36.165,21.995c-16.398,29.118-8.745,47.456,4.073,55.094l97.95,69.088
			c1.318,14.551,4.16,25.896,8.51,34.332c-4.623,5.289-6.979,12.042-6.584,19.07L132.191,439.757z"/>
		<path d="M228.209,45.123c0.321-3.933,1.108-7.762,2.569-11.327c-0.347,0.276-0.741,0.487-1.086,0.777
			c-5.799-13.589-18.885-22.957-34.085-22.957l0,0c-0.487,0-0.98,0.008-1.475,0.03c-17.977,0.733-32.472,14.651-35.169,32.398
			c-5.781-3.709-12.585-5.821-19.841-5.821c-1.883,0-3.791,0.148-5.667,0.447c-9.932,1.577-18.583,7.095-24.375,15.537
			c-5.581,8.137-7.834,18.062-6.36,27.986l6.392,68.305l-0.511-0.046l1.356,14.216c1.108,11.579,1.837,22.343,2.338,32.157
			c1.519-2.845,3.324-5.746,5.412-8.71c1.058-1.499,2.01-2.981,3.21-4.504c0.689-0.881,1.458-1.677,2.208-2.495
			c-0.403-5.662-0.868-11.473-1.447-17.57l0.481,0.05l-7.752-82.839c-2.322-14.617,7.035-28.249,20.899-30.453
			c1.28-0.202,2.561-0.298,3.815-0.306c12.381,0,23.377,9.513,25.489,22.782l8.337,43.436l-2.645-64.994
			c-0.605-14.79,10.285-27.232,24.307-27.808c0.329-0.014,0.667-0.022,0.996-0.022c13.589,0,24.9,11.331,25.483,25.766l3.619,49.66
			l3.202-50.72C227.925,47.085,228.133,46.119,228.209,45.123z"/>
		<path d="M179.12,188.136c2.427,44.889,14.272,75.005,34.63,87.408c20.74,12.656,45.958,4.601,55.146,0.874
			c1.928-16.07,5.153-74.334-42.727-98.395c-2.044,18.549-4.304,33.402-5.873,42.699L179.12,188.136z"/>
		<path d="M334.858,227.277c-10.503,6.486-15.777,13.186-16.113,20.44c-1.042,21.456,37.441,50.734,74.654,79.038
			c2.561,1.956,5.121,3.928,7.698,5.879c11.674-29.675,20.822-61.413,20.822-69.416c0-5.791,4-29.563,6.517-43.455l-0.445,0.818
			C426.204,219.599,384.002,196.887,334.858,227.277z"/>
		<path d="M453.006,113.117c3.09-13.168-5.081-26.331-18.246-29.417c-1.879-0.441-3.747-0.651-5.603-0.651
			c-11.108,0-21.167,7.616-23.812,18.893l-25.816,66.698l30.36-111.052c2.945-14.812-5.418-28.959-18.675-31.597
			c-1.45-0.291-2.889-0.422-4.315-0.422c-11.686,0-22.401,9.277-25.022,22.476l-27.928,92.892L356.11,32.424
			c1.855-16.042-8.961-30.479-24.165-32.246C330.903,0.064,329.894,0,328.88,0c-13.97,0-26.112,11.07-27.852,26.014l-5.435,46.727
			l-0.693,5.943l-0.688,13.81l-1.379,35.419l-0.385-35.005l-0.2-13.888l-0.196-5.927l-0.83-24.808
			c-0.016-16.13-12.427-29.2-27.719-29.2c-0.017,0-0.032,0-0.032,0c-7.482,0.008-14.247,3.17-19.228,8.255
			c-2.318,2.373-4.186,5.184-5.608,8.284c-1.311,2.841-2.15,5.927-2.523,9.185c-0.13,1.17-0.336,2.322-0.336,3.543l-5.723,90.585
			l-0.509-0.134c-0.487,7.889-1.074,15.379-1.72,22.554c71.356,30.391,56.136,120.896,55.96,121.862
			c-0.429,2.412-1.96,4.468-4.132,5.594c-1.094,0.562-18.526,9.334-39.864,9.334c-10.898,0-22.814-2.288-34.085-9.125
			c-27.294-16.551-41.617-54.232-42.675-111.926c-3.134-1.168-6.44-1.805-9.796-1.805c-9.508,0-19.346,4.592-26.15,13.19
			c-1.108,1.395-2.174,2.847-3.206,4.324c-2.046,2.927-3.894,5.965-5.422,9.027c-4.789,9.602-6.352,19.384-0.607,26.396
			c0.788,0.95,1.661,1.884,2.733,2.729l4.458,4.323l94.112,91.366c-1.13,11.87-1.36,25.635,1.396,36.447
			c0.529,2.056,1.168,3.987,1.924,5.786c0.008,0.024,0.022,0.049,0.03,0.068c0.112-0.02,0.208-0.068,0.315-0.084
			c1.625-0.345,3.296-0.564,5.033-0.564l0,0c0.81,0,1.625,0.035,2.448,0.128l0.134,0.016l37.624,3.795l5.979,0.605l9.045,0.905
			l4.155,0.421l5.606,0.562l2.16,0.229l5.054,0.509l60.111,6.071c2.585,0.26,4.993,0.981,7.237,1.991
			c1.899,0.469,3.734,1.099,5.506,1.855c6.896-6.809,14.647-21.115,21.94-37.766c-3.65-2.789-7.306-5.595-10.956-8.372
			c-42.318-32.191-82.276-62.596-80.834-92.303c0.613-12.631,8.524-23.752,23.552-33.041c48.643-30.076,91.727-15.004,104.898-9.057
			L453.006,113.117z"/>
		<path d="M289.507,463.385l63.935,6.624c1.307,0.124,2.593-0.028,3.879-0.093c6.212-1.779,11.049-7.145,11.738-13.974l4.921-48.706
			c0.408-3.999-0.733-7.774-2.842-10.84c-0.837-1.194-1.771-2.328-2.896-3.274c-0.786-0.657-1.644-1.234-2.549-1.739
			c-1.327-0.336-2.621-0.749-4.016-0.905l-63.931-6.624c-1.002-0.104-2-0.161-2.997-0.161c-17.396,0-32.682,16.002-34.789,36.44
			C257.676,442.041,270.937,461.453,289.507,463.385z"/>
		<path d="M216.143,455.951c1.601,0.732,3.314,1.294,5.166,1.471l26.329,2.668l20.461,2.061
			c-11.204-9.574-17.752-25.544-15.961-42.84c1.763-17.035,11.057-31.193,23.699-38.383l-7.926-0.798l-21.428-2.164l-16.994-1.715
			c-0.557-0.056-1.108-0.084-1.657-0.084c-0.26,0-0.493,0.052-0.748,0.068c-1.553,0.075-3.052,0.368-4.472,0.849
			c-1.296,0.438-2.519,1.022-3.649,1.756c-1.408,0.922-2.673,2.056-3.739,3.358c-1.467,1.803-2.537,3.911-3.132,6.255
			c-0.198,0.782-0.395,1.579-0.471,2.4l-0.361,3.604l-4.552,45.104c-0.411,4.007,0.735,7.786,2.863,10.859
			C211.22,452.789,213.458,454.708,216.143,455.951z"/>
	</g>
</g>
<g>
</g>
<g>
</g>
<g>
</g>
<g>
</g>
<g>
</g>
<g>
</g>
<g>
</g>
<g>
</g>
<g>
</g>
<g>
</g>
<g>
</g>
<g>
</g>
<g>
</g>
<g>
</g>
<g>
</g>
</svg>
